<svg width="215" height="134" viewBox="0 0 215 134" fill="none" xmlns="http://www.w3.org/2000/svg">
<g clip-path="url(#clip0_49_324)">
<path d="M148.079 29.5135L143.073 27.537C143.073 27.537 142.838 27.4365 142.805 27.4365L110.286 14.606V2.8475C110.286 1.273 109.01 0 107.431 0C105.852 0 104.576 1.273 104.576 2.8475V14.606L66.8169 29.5135C66.1114 29.7815 65.5403 30.3175 65.238 31.021C64.9356 31.7245 64.9356 32.495 65.2044 33.1985C65.6411 34.304 66.6825 35.0075 67.8582 35.0075C68.2278 35.0075 68.5637 34.9405 68.8996 34.8065L70.1426 34.304V45.694C70.1426 48.776 72.6285 51.255 75.7191 51.255H104.676C107.767 51.255 110.253 48.776 110.253 45.694V20.703L138.942 32.026V48.4075C138.942 49.982 140.218 51.255 141.797 51.255C143.376 51.255 144.652 49.982 144.652 48.4075V34.2705L145.929 34.773C147.407 35.3425 149.053 34.639 149.624 33.165C150.195 31.691 149.49 30.0495 148.012 29.48L148.079 29.5135ZM104.576 20.7365V45.5935H75.887V32.0595L104.576 20.7365Z" fill="#00B1FF"/>
<path d="M29.5284 70.3501C33.1229 72.0586 35.9112 74.5041 37.9603 77.6531C40.0095 80.8021 41.0173 84.4871 41.0173 88.6746C41.0173 92.8621 40.0095 96.5806 37.9603 99.7296C35.9112 102.912 33.0893 105.358 29.5284 107.066C25.934 108.775 21.8692 109.646 17.3341 109.646H0V67.7371H17.3341C21.8692 67.7371 25.9676 68.6081 29.5284 70.3166V70.3501ZM25.2285 100.132C27.5128 99.0596 29.2597 97.5521 30.4691 95.5756C31.6784 93.5991 32.3167 91.3211 32.3167 88.7081C32.3167 86.0951 31.712 83.8841 30.4691 81.9076C29.2597 79.9311 27.5128 78.4236 25.2285 77.3516C22.9442 76.2796 20.3239 75.7436 17.3341 75.7436H8.59986V101.773H17.3341C20.3239 101.773 22.9442 101.237 25.2285 100.165V100.132Z" fill="#1E1E1E"/>
<path d="M51.7002 109.712V67.804H60.3001V109.712H51.7002Z" fill="#1E1E1E"/>
<path d="M79.8846 108.54C76.1558 107.267 73.1324 105.827 70.8145 104.219L75.9206 97.9875C78.0706 99.4615 80.4557 100.567 83.0424 101.338C85.6291 102.108 88.2493 102.477 90.836 102.477C93.4227 102.477 95.7742 102.041 97.4875 101.204C99.1671 100.366 100.007 99.16 100.007 97.619C100.007 96.2455 99.2679 95.207 97.7562 94.604C96.2445 93.9675 94.0946 93.4315 91.2727 92.9625L90.5673 92.8955L90.2985 92.8285C90.2985 92.8285 90.0634 92.8285 89.9962 92.7615C85.6963 92.058 82.3033 91.1535 79.8174 90.0815C77.3315 89.0095 75.5511 87.703 74.4425 86.162C73.3339 84.621 72.7965 82.7785 72.7965 80.5675C72.7965 75.777 74.6441 72.3265 78.3393 70.1825C82.0346 68.072 86.4353 67 91.5079 67C94.1953 67 97.118 67.5025 100.276 68.5075C103.4 69.5125 106.457 70.819 109.413 72.427L104.038 78.591C99.7046 76.179 95.4719 75.0065 91.4071 75.0065C88.2493 75.0065 85.8306 75.442 84.151 76.3465C82.4713 77.251 81.6315 78.524 81.6315 80.1655C81.6315 81.4385 82.3369 82.41 83.7814 83.08C85.226 83.75 87.8126 84.353 91.6087 84.9225C94.8 85.425 97.5547 85.9945 99.8726 86.6645C102.157 87.301 104.24 88.507 106.121 90.249C108.002 91.991 108.943 94.403 108.943 97.4515C108.943 100.031 108.204 102.276 106.726 104.219C105.248 106.162 103.131 107.703 100.41 108.775C97.6554 109.88 94.4641 110.416 90.8024 110.416C87.2751 110.416 83.6135 109.78 79.8846 108.507V108.54Z" fill="#1E1E1E"/>
<path d="M159.165 109.712H150.431V92.4265H129.133V109.712H120.533V67.804H129.133V84.621H150.431V67.804H159.165V109.712Z" fill="#1E1E1E"/>
<path d="M182.31 100.131L177.775 109.712H168.235L187.517 67.804H195.613L214.896 109.712H205.355L200.921 100.131H182.344H182.31ZM191.616 79.127L185.938 92.2925H197.461L191.649 79.127H191.616Z" fill="#1E1E1E"/>
<path d="M31.6112 134H29.226V129.277H23.3808V134H21.0293V122.51H23.3808V127.133H29.226V122.51H31.6112V134Z" fill="#1E1E1E"/>
<path d="M53.5141 131.387L52.2712 134H49.6509L54.925 122.51H57.1422L62.4163 134H59.796L58.5867 131.387H53.4805H53.5141ZM56.0672 125.625L54.5219 129.243H57.6797L56.1008 125.625H56.0672Z" fill="#1E1E1E"/>
<path d="M89.9292 127.032C89.7949 127.434 89.5933 127.769 89.3246 128.037C89.5261 128.305 89.7277 128.64 89.8957 129.076C90.0636 129.511 90.1308 129.913 90.1308 130.315C90.1308 130.952 89.9628 131.555 89.6269 132.124C89.291 132.694 88.8207 133.129 88.216 133.464C87.6113 133.799 86.9059 133.967 86.0996 133.967H80.4224V122.476H86.0996C86.9059 122.476 87.6113 122.61 88.216 122.878C88.8207 123.146 89.291 123.548 89.5933 124.051C89.9292 124.553 90.0636 125.123 90.0636 125.759C90.0636 126.195 89.9964 126.597 89.8285 126.999L89.9292 127.032ZM87.3762 126.664C87.6449 126.463 87.7457 126.161 87.7457 125.793C87.7457 125.424 87.6113 125.156 87.3426 124.955C87.0738 124.754 86.6707 124.654 86.1332 124.654H82.8411V126.965H86.2676C86.7379 126.965 87.1074 126.865 87.3762 126.664ZM87.3426 131.387C87.6449 131.086 87.7793 130.751 87.7793 130.349C87.7793 129.947 87.6449 129.679 87.4098 129.478C87.141 129.277 86.7715 129.176 86.3012 129.176H82.8747V131.856H86.1668C86.6707 131.856 87.0402 131.722 87.3426 131.421V131.387Z" fill="#1E1E1E"/>
<path d="M109.111 134V122.51H111.462V134H109.111Z" fill="#1E1E1E"/>
<path d="M135.885 124.687V134H133.5V124.687H129.502V122.543H139.849V124.687H135.851H135.885Z" fill="#1E1E1E"/>
<path d="M159.164 131.387L157.922 134H155.301L160.575 122.51H162.793L168.067 134H165.446L164.237 131.387H159.131H159.164ZM161.684 125.625L160.139 129.243H163.296L161.718 125.625H161.684Z" fill="#1E1E1E"/>
<path d="M189.869 124.687V134H187.484V124.687H183.486V122.543H193.833V124.687H189.835H189.869Z" fill="#1E1E1E"/>
</g>
<defs>
<clipPath id="clip0_49_324">
<rect width="214.862" height="134" fill="white"/>
</clipPath>
</defs>
</svg>
