<svg width="28" height="17" viewBox="0 0 28 17" fill="none" xmlns="http://www.w3.org/2000/svg">
<path d="M24.0296 0.696235L16.0962 8.62957L13.9087 10.4087L11.7212 8.62957L3.7879 0.696235C3.58763 0.481315 3.34613 0.30893 3.0778 0.18937C2.80947 0.0698102 2.51981 0.00552272 2.22609 0.00034043C1.93237 -0.00484186 1.64062 0.0491896 1.36824 0.159209C1.09586 0.269229 0.848425 0.432985 0.640703 0.640707C0.432982 0.848428 0.269227 1.09586 0.159207 1.36824C0.0491876 1.64062 -0.00484185 1.93237 0.000340441 2.22609C0.00552273 2.5198 0.0698105 2.80947 0.18937 3.0778C0.30893 3.34613 0.481312 3.58763 0.696231 3.7879L12.3629 15.4546C12.7731 15.8642 13.329 16.0943 13.9087 16.0943C14.4884 16.0943 15.0444 15.8642 15.4546 15.4546L27.1212 3.7879C27.3362 3.58763 27.5085 3.34613 27.6281 3.0778C27.7477 2.80947 27.8119 2.5198 27.8171 2.22609C27.8223 1.93237 27.7683 1.64062 27.6583 1.36824C27.5482 1.09586 27.3845 0.848428 27.1768 0.640707C26.969 0.432985 26.7216 0.269229 26.4492 0.159209C26.1768 0.0491896 25.8851 -0.00484186 25.5914 0.00034043C25.2977 0.00552272 25.008 0.0698102 24.7397 0.18937C24.4713 0.30893 24.2298 0.481315 24.0296 0.696235Z" fill="white"/>
</svg>
