<svg width="25" height="36" viewBox="0 0 25 36" fill="none" xmlns="http://www.w3.org/2000/svg">
<g filter="url(#filter0_d_1409_21)">
<path d="M20.2608 24.1677L12.3275 16.2344L10.5483 14.0469L12.3275 11.8594L20.2608 3.92608C20.4757 3.72582 20.6481 3.48432 20.7677 3.21599C20.8872 2.94765 20.9515 2.65799 20.9567 2.36427C20.9619 2.07056 20.9078 1.7788 20.7978 1.50642C20.6878 1.23404 20.524 0.986608 20.3163 0.778887C20.1086 0.571166 19.8612 0.40741 19.5888 0.297391C19.3164 0.187371 19.0247 0.133342 18.7309 0.138524C18.4372 0.143706 18.1476 0.207994 17.8792 0.327554C17.6109 0.447114 17.3694 0.619495 17.1691 0.834415L5.50246 12.5011C5.09282 12.9112 4.86272 13.4672 4.86272 14.0469C4.86272 14.6266 5.09282 15.1826 5.50246 15.5927L17.1691 27.2594C17.3694 27.4743 17.6109 27.6467 17.8792 27.7663C18.1476 27.8858 18.4372 27.9501 18.7309 27.9553C19.0247 27.9605 19.3164 27.9065 19.5888 27.7964C19.8612 27.6864 20.1086 27.5227 20.3163 27.3149C20.524 27.1072 20.6878 26.8598 20.7978 26.5874C20.9078 26.315 20.9619 26.0233 20.9567 25.7296C20.9515 25.4358 20.8872 25.1462 20.7677 24.8778C20.6481 24.6095 20.4757 24.368 20.2608 24.1677Z" fill="white"/>
</g>
<defs>
<filter id="filter0_d_1409_21" x="0.862793" y="0.138184" width="24.0942" height="35.8174" filterUnits="userSpaceOnUse" color-interpolation-filters="sRGB">
<feFlood flood-opacity="0" result="BackgroundImageFix"/>
<feColorMatrix in="SourceAlpha" type="matrix" values="0 0 0 0 0 0 0 0 0 0 0 0 0 0 0 0 0 0 127 0" result="hardAlpha"/>
<feOffset dy="4"/>
<feGaussianBlur stdDeviation="2"/>
<feComposite in2="hardAlpha" operator="out"/>
<feColorMatrix type="matrix" values="0 0 0 0 0 0 0 0 0 0 0 0 0 0 0 0 0 0 0.25 0"/>
<feBlend mode="normal" in2="BackgroundImageFix" result="effect1_dropShadow_1409_21"/>
<feBlend mode="normal" in="SourceGraphic" in2="effect1_dropShadow_1409_21" result="shape"/>
</filter>
</defs>
</svg>
