<svg width="25" height="36" viewBox="0 0 25 36" fill="none" xmlns="http://www.w3.org/2000/svg">
<g filter="url(#filter0_d_1409_21)">
<path d="M5.55854 3.926L13.4919 11.8593L15.271 14.0468L13.4919 16.2343L5.55854 24.1677C5.34362 24.3679 5.17123 24.6094 5.05167 24.8778C4.93211 25.1461 4.86783 25.4358 4.86265 25.7295C4.85746 26.0232 4.91149 26.3149 5.02151 26.5873C5.13153 26.8597 5.29529 27.1071 5.50301 27.3149C5.71073 27.5226 5.95816 27.6863 6.23054 27.7964C6.50293 27.9064 6.79468 27.9604 7.08839 27.9552C7.38211 27.95 7.67178 27.8858 7.94011 27.7662C8.20844 27.6466 8.44994 27.4743 8.6502 27.2593L20.3169 15.5927C20.7265 15.1825 20.9566 14.6265 20.9566 14.0468C20.9566 13.4671 20.7265 12.9112 20.3169 12.501L8.6502 0.834331C8.44994 0.619411 8.20844 0.447033 7.94011 0.327472C7.67178 0.207912 7.38211 0.143625 7.08839 0.138443C6.79468 0.13326 6.50293 0.18729 6.23054 0.29731C5.95816 0.407329 5.71073 0.571085 5.50301 0.778806C5.29529 0.986528 5.13153 1.23396 5.02151 1.50634C4.91149 1.77873 4.85746 2.07047 4.86265 2.36419C4.86783 2.65791 4.93211 2.94757 5.05167 3.2159C5.17123 3.48424 5.34362 3.72574 5.55854 3.926Z" fill="black"/>
</g>
<defs>
<filter id="filter0_d_1409_21" x="0.862305" y="0.138184" width="24.0942" height="35.8174" filterUnits="userSpaceOnUse" color-interpolation-filters="sRGB">
<feFlood flood-opacity="0" result="BackgroundImageFix"/>
<feColorMatrix in="SourceAlpha" type="matrix" values="0 0 0 0 0 0 0 0 0 0 0 0 0 0 0 0 0 0 127 0" result="hardAlpha"/>
<feOffset dy="4"/>
<feGaussianBlur stdDeviation="2"/>
<feComposite in2="hardAlpha" operator="out"/>
<feColorMatrix type="matrix" values="0 0 0 0 0 0 0 0 0 0 0 0 0 0 0 0 0 0 0.25 0"/>
<feBlend mode="normal" in2="BackgroundImageFix" result="effect1_dropShadow_1409_21"/>
<feBlend mode="normal" in="SourceGraphic" in2="effect1_dropShadow_1409_21" result="shape"/>
</filter>
</defs>
</svg>
