<svg width="25" height="36" viewBox="0 0 25 36" fill="none" xmlns="http://www.w3.org/2000/svg">
<g filter="url(#filter0_d_1409_21)">
<path d="M20.2603 24.1677L12.327 16.2344L10.5478 14.0469L12.327 11.8594L20.2603 3.92608C20.4752 3.72582 20.6476 3.48432 20.7672 3.21599C20.8867 2.94765 20.951 2.65799 20.9562 2.36427C20.9614 2.07056 20.9074 1.7788 20.7973 1.50642C20.6873 1.23404 20.5236 0.986608 20.3158 0.778887C20.1081 0.571166 19.8607 0.40741 19.5883 0.297391C19.3159 0.187371 19.0242 0.133342 18.7305 0.138524C18.4367 0.143706 18.1471 0.207994 17.8787 0.327554C17.6104 0.447114 17.3689 0.619495 17.1686 0.834415L5.50197 12.5011C5.09233 12.9112 4.86224 13.4672 4.86224 14.0469C4.86224 14.6266 5.09233 15.1826 5.50197 15.5927L17.1686 27.2594C17.3689 27.4743 17.6104 27.6467 17.8787 27.7663C18.1471 27.8858 18.4367 27.9501 18.7305 27.9553C19.0242 27.9605 19.3159 27.9065 19.5883 27.7964C19.8607 27.6864 20.1081 27.5227 20.3158 27.3149C20.5236 27.1072 20.6873 26.8598 20.7973 26.5874C20.9074 26.315 20.9614 26.0233 20.9562 25.7296C20.951 25.4358 20.8867 25.1462 20.7672 24.8778C20.6476 24.6095 20.4752 24.368 20.2603 24.1677Z" fill="black"/>
</g>
<defs>
<filter id="filter0_d_1409_21" x="0.862305" y="0.138184" width="24.0942" height="35.8174" filterUnits="userSpaceOnUse" color-interpolation-filters="sRGB">
<feFlood flood-opacity="0" result="BackgroundImageFix"/>
<feColorMatrix in="SourceAlpha" type="matrix" values="0 0 0 0 0 0 0 0 0 0 0 0 0 0 0 0 0 0 127 0" result="hardAlpha"/>
<feOffset dy="4"/>
<feGaussianBlur stdDeviation="2"/>
<feComposite in2="hardAlpha" operator="out"/>
<feColorMatrix type="matrix" values="0 0 0 0 0 0 0 0 0 0 0 0 0 0 0 0 0 0 0.25 0"/>
<feBlend mode="normal" in2="BackgroundImageFix" result="effect1_dropShadow_1409_21"/>
<feBlend mode="normal" in="SourceGraphic" in2="effect1_dropShadow_1409_21" result="shape"/>
</filter>
</defs>
</svg>
